<?xml version="1.0"?>
<svg xmlns="http://www.w3.org/2000/svg" viewBox="0 0 512 512" width="512" height="512"><g id="Outline"><path d="M488,320h-8a32.036,32.036,0,0,0-32-32H411.747L376,245.1V207.23l29.23-25.256a7.961,7.961,0,0,0,1.22-1.322l88-119.939a8,8,0,0,0,.7-8.311l-16-31.985A8,8,0,0,0,472,16H391.12a24.051,24.051,0,0,0-17.835,7.938L327.733,74.527a93.229,93.229,0,0,1-48.562,28.8C202.865,120.826,136.7,159.34,92.862,211.769l12.276,10.263c41.61-49.766,104.687-86.386,177.613-103.115a109.162,109.162,0,0,0,56.874-33.685l45.547-50.585A8.022,8.022,0,0,1,391.12,32h75.94l.542,1.084L410.343,90.343l11.314,11.314,53.49-53.49,3.512,7.021-84.574,115.27L344,213.734V192H328v64a8,8,0,0,0,1.753,5l32,40A8,8,0,0,0,368,304h48a16.019,16.019,0,0,1,16,16v8a21.849,21.849,0,0,1-8,16.923V328a8,8,0,0,0-16,0,21.849,21.849,0,0,1-8,16.923V328a8,8,0,0,0-16,0,21.849,21.849,0,0,1-8,16.923V328a8,8,0,0,0-8-8,26.757,26.757,0,0,1-20.339-9.354L312,269.041V208H296v47.21L258.053,288H232V249.889a33.888,33.888,0,0,0-49.044-30.311l-58.534,29.267,7.156,14.31,58.534-29.266a17.887,17.887,0,0,1,25.888,16V296a8,8,0,0,0,8,8h40a16.019,16.019,0,0,1,16,16v8a21.849,21.849,0,0,1-8,16.923V328a8,8,0,0,0-16,0,21.849,21.849,0,0,1-8,16.923V328a8,8,0,0,0-16,0,21.849,21.849,0,0,1-8,16.923V328a8,8,0,0,0-8-8,16.019,16.019,0,0,1-16-16V264a8,8,0,0,0-11.578-7.155l-48,24,7.156,14.31L184,276.944V304a31.8,31.8,0,0,0,4.271,15.947l-68.258-.107H120a8,8,0,0,0-8,8l-.021,3.049c-.171,23.616-.366,50.384,12,72.938a72.571,72.571,0,0,0,5.617,8.762c16.7,22.346,41.86,31.161,67.294,23.587,14.741-4.4,27.943-12.174,40.71-19.7,5.415-3.19,24.162-13.242,27.6-14.687,21.737-9.15,43.365-12.517,64.274-10.01a131.231,131.231,0,0,1,81.823,42.782l14.892,16.751a4.357,4.357,0,0,1,.211,5.785,4.106,4.106,0,0,1-5.7.332l-18.837-16.127c-32.334-27.71-78.137-34.167-113.971-16.068-13.592,6.864-45.778,32.714-50.494,36.219-33.019,24.523-81.257,23.984-120.034-1.344-22.838-14.927-37.755-35.32-45.606-62.349-6.785-23.3-7.741-70.884-7.741-70.884,0-30.019,10.694-62.105,30.113-90.348l-13.184-9.064C61.164,256.228,49.668,288.822,48.18,320H24a8,8,0,0,0-8,8v72a8,8,0,0,0,8,8H58.189c9.36,28.009,25.9,49.481,50.416,65.508a132.435,132.435,0,0,0,72.113,21.952c23.987,0,47.214-7.048,66.214-21.159,4.961-3.686,36.071-28.674,48.166-34.78,30.141-15.225,68.858-9.625,96.349,13.936l18.834,16.125a20.1,20.1,0,0,0,27.858-28.9l-14.891-16.75A147.224,147.224,0,0,0,331.373,375.9c-23.7-2.843-48.059.909-72.386,11.15-3.332,1.4-6.8,3.042-10.517,4.954H135.957c-7.62-16.72-8.1-36.5-8.009-56H208v24a8,8,0,0,0,12.438,6.656l10.687-7.125c.295-.2.587-.4.875-.6V360a8,8,0,0,0,12.438,6.656l10.687-7.125c.295-.2.587-.4.875-.6V360a8,8,0,0,0,12.438,6.656l10.687-7.125A37.8,37.8,0,0,0,295.133,336H360v16H296v16H432v-9.092A37.779,37.779,0,0,0,447.133,336H480v16H448v16h32v24H424v16h64a8,8,0,0,0,8-8V328A8,8,0,0,0,488,320ZM371.845,288,344,253.193V234.88l16-13.825V248a8,8,0,0,0,1.854,5.121L390.92,288ZM32,392V336H48.077c.261,16.936,1.418,36.821,5.7,56Zm188.375,16c-9.249,5.278-18.349,9.946-28.059,12.843-17.022,5.069-33.376.386-45.734-12.843ZM296,320a32.028,32.028,0,0,0-17.508-28.516l18.374-15.878a7.976,7.976,0,0,0,1.06,1.6L334.606,320Zm152,0a31.793,31.793,0,0,0-4.305-16H448a16.019,16.019,0,0,1,16,16ZM144,368V352h48v16ZM424,60a20,20,0,1,0-20,20A20.023,20.023,0,0,0,424,60Zm-24,0a4,4,0,1,1,4,4A4,4,0,0,1,400,60Zm-32,68a16,16,0,1,1,16-16A16.019,16.019,0,0,1,368,128ZM227.969,206.946l-7.938-13.892,112-64,7.938,13.892Z"/></g></svg>
